<svg width="100" height="100" viewBox="0 0 100 100" fill="none" xmlns="http://www.w3.org/2000/svg">
<path opacity="0.5" d="M12 32.1038V25.8804C12 22.9789 14.3521 20.6268 17.2536 20.6268H23.1537H32.6506C34.1974 20.6268 35.6749 21.268 36.7314 22.3978L39.3489 25.1968C40.2061 26.1135 41.4049 26.6337 42.6598 26.6337H78.6637C81.9229 26.6337 83.5525 26.6337 84.7973 27.2407C85.8923 27.7747 87.5 29.5 87.5 32" stroke="black" stroke-linecap="round" stroke-dasharray="3 4"/>
<path opacity="0.5" d="M76.9297 28H41C39.8173 28 38.5811 27.1589 37.7733 26.4641L36.3066 24.3425C35.311 23.4861 33.9186 23 32.4609 23H24.5112H18.9509C16.2166 23 14 24.7829 14 26.9823V31.6997C14.9424 29.726 16.7329 29.347 18.2407 29.347H80.4384C82.6034 29.347 85 30.7872 85 32C85 29.5 83.7418 28.8649 82.7099 28.4601C81.5368 28 80.0011 28 76.9297 28Z" fill="url(#paint0_linear_302_21)"/>
<path opacity="0.5" d="M12 42.0209C12 38.7618 12 37.1322 12.6343 35.8874C13.1922 34.7924 14.0824 33.9022 15.1774 33.3443C16.4222 32.71 18.0518 32.71 21.3109 32.71H78.6637C81.9229 32.71 83.5525 32.71 84.7973 33.3443C85.8923 33.9022 86.7825 34.7924 87.3404 35.8874C87.9747 37.1322 87.9747 38.7618 87.9747 42.0209V72.5401C87.9747 75.7993 87.9747 77.4288 87.3404 78.6736C86.7825 79.7686 85.8923 80.6589 84.7973 81.2168C83.5525 81.8511 81.9229 81.8511 78.6637 81.8511H21.3109C18.0518 81.8511 16.4222 81.8511 15.1774 81.2168C14.0824 80.6589 13.1922 79.7686 12.6343 78.6736C12 77.4288 12 75.7993 12 72.5401V42.0209Z" stroke="black" stroke-linecap="round" stroke-dasharray="3 4"/>
<path opacity="0.2" d="M13 42.9053C13 39.7881 13 38.2296 13.6178 37.039C14.1612 35.9917 15.0283 35.1402 16.0948 34.6066C17.3073 34 18.8945 34 22.0689 34H77.9311C81.1055 34 82.6927 34 83.9052 34.6066C84.9717 35.1402 85.8388 35.9917 86.3822 37.039C87 38.2296 87 39.7881 87 42.9053V72.0947C87 75.2119 87 76.7704 86.3822 77.961C85.8388 79.0083 84.9717 79.8598 83.9052 80.3934C82.6927 81 81.1055 81 77.9311 81H22.0689C18.8945 81 17.3073 81 16.0948 80.3934C15.0283 79.8598 14.1612 79.0083 13.6178 77.961C13 76.7704 13 75.2119 13 72.0947V42.9053Z" fill="url(#paint1_linear_302_21)"/>
<defs>
<linearGradient id="paint0_linear_302_21" x1="49.5" y1="23" x2="49.5" y2="32" gradientUnits="userSpaceOnUse">
<stop stop-color="#D9D9D9" stop-opacity="0"/>
<stop offset="1" stop-color="#737373"/>
</linearGradient>
<linearGradient id="paint1_linear_302_21" x1="50" y1="34" x2="50" y2="81" gradientUnits="userSpaceOnUse">
<stop stop-color="#D9D9D9" stop-opacity="0"/>
<stop offset="1" stop-color="#737373"/>
</linearGradient>
</defs>
</svg>
